<svg width="20" height="20" viewBox="0 0 20 20" fill="none" xmlns="http://www.w3.org/2000/svg">
<path d="M9.51666 18.1791C9.65798 18.2791 9.82686 18.3329 9.99999 18.3329C10.1731 18.3329 10.342 18.2791 10.4833 18.1791C10.7367 17.9983 16.6908 13.7 16.6667 8.33329C16.6667 4.65746 13.6758 1.66663 9.99999 1.66663C6.32416 1.66663 3.33333 4.65746 3.33333 8.32996C3.30916 13.7 9.26333 17.9983 9.51666 18.1791ZM9.99999 3.33329C12.7575 3.33329 15 5.57579 15 8.33663C15.0175 12.035 11.3433 15.3558 9.99999 16.4458C8.65749 15.3558 4.98249 12.035 4.99999 8.33329C4.99999 5.57579 7.24249 3.33329 9.99999 3.33329Z" fill="#ED1940"/>
<path d="M9.16675 11.6667H10.8334V9.16667H13.3334V7.5H10.8334V5H9.16675V7.5H6.66675V9.16667H9.16675V11.6667Z" fill="#ED1940"/>
</svg>
