<svg width="16" height="16" viewBox="0 0 16 16" fill="none" xmlns="http://www.w3.org/2000/svg">
<path d="M10.6666 0.666664C10.8434 0.666664 11.013 0.736902 11.138 0.861926C11.263 0.98695 11.3333 1.15652 11.3333 1.33333V2H14.6666V6H13.3206L15.1513 11.0293C15.2824 11.3678 15.343 11.7295 15.3295 12.0922C15.3159 12.455 15.2285 12.8111 15.0724 13.1389C14.9164 13.4667 14.6951 13.7591 14.4221 13.9983C14.1491 14.2375 13.8301 14.4185 13.4847 14.5301C13.1393 14.6418 12.7747 14.6817 12.4133 14.6475C12.0519 14.6133 11.7014 14.5056 11.383 14.3312C11.0647 14.1567 10.7854 13.9191 10.5621 13.6329C10.3388 13.3467 10.1763 13.0179 10.0846 12.6667H7.24925C7.09773 13.2518 6.75204 13.7681 6.26878 14.1311C5.78552 14.4941 5.19333 14.6822 4.58918 14.6647C3.98503 14.6472 3.40472 14.4251 2.94329 14.0347C2.48186 13.6444 2.16664 13.1089 2.04925 12.516C1.83321 12.4031 1.65223 12.2332 1.52599 12.0247C1.39976 11.8162 1.3331 11.5771 1.33325 11.3333V4.66666C1.33325 4.48985 1.40349 4.32028 1.52851 4.19526C1.65354 4.07024 1.82311 4 1.99992 4H6.66658C6.8434 4 7.01297 4.07024 7.13799 4.19526C7.26301 4.32028 7.33325 4.48985 7.33325 4.66666V8C7.33325 8.17681 7.40349 8.34638 7.52851 8.4714C7.65354 8.59643 7.82311 8.66666 7.99992 8.66666H9.33325C9.51006 8.66666 9.67963 8.59643 9.80466 8.4714C9.92968 8.34638 9.99992 8.17681 9.99992 8V2H7.99992V0.666664H10.6666ZM4.66659 10.6667C4.31296 10.6667 3.97382 10.8071 3.72378 11.0572C3.47373 11.3072 3.33325 11.6464 3.33325 12C3.33325 12.3536 3.47373 12.6928 3.72378 12.9428C3.97382 13.1929 4.31296 13.3333 4.66659 13.3333C5.02021 13.3333 5.35935 13.1929 5.60939 12.9428C5.85944 12.6928 5.99992 12.3536 5.99992 12C5.99992 11.6464 5.85944 11.3072 5.60939 11.0572C5.35935 10.8071 5.02021 10.6667 4.66659 10.6667ZM12.6666 10.666C12.383 10.6661 12.1069 10.7566 11.8783 10.9243C11.6497 11.092 11.4805 11.3282 11.3953 11.5987C11.3101 11.8691 11.3133 12.1597 11.4045 12.4281C11.4957 12.6966 11.6701 12.929 11.9024 13.0916C12.1347 13.2542 12.4127 13.3386 12.6962 13.3323C12.9797 13.3261 13.2538 13.2297 13.4787 13.0571C13.7037 12.8845 13.8677 12.6446 13.9471 12.3724C14.0264 12.1002 14.0169 11.8098 13.9199 11.5433L13.9093 11.514C13.8114 11.2641 13.6405 11.0496 13.4188 10.8984C13.1971 10.7472 12.9349 10.6664 12.6666 10.6667V10.666ZM11.9019 6H11.3333V8C11.3333 8.53043 11.1225 9.03914 10.7475 9.41421C10.3724 9.78928 9.86368 10 9.33325 10H7.99992C7.46949 10 6.96078 9.78928 6.5857 9.41421C6.21063 9.03914 5.99992 8.53043 5.99992 8H2.66659V10.236C2.98715 9.873 3.40046 9.6041 3.86222 9.45813C4.32397 9.31216 4.81675 9.29461 5.28771 9.40739C5.75868 9.52016 6.19006 9.759 6.53562 10.0983C6.88118 10.4376 7.12787 10.8645 7.24925 11.3333H10.0839C10.2519 10.6834 10.6587 10.1208 11.2231 9.75749C11.7875 9.39421 12.4682 9.25704 13.1293 9.37333L11.9019 6ZM5.99992 5.33333H2.66659V6.66666H5.99992V5.33333ZM13.3333 3.33333H11.3333V4.66666H13.3333V3.33333Z" fill="#ED1940"/>
</svg>
