<svg width="20" height="14" viewBox="0 0 20 14" fill="none" xmlns="http://www.w3.org/2000/svg">
<path d="M15.8333 8.66658V1.99992C15.8333 1.08325 15.0833 0.333252 14.1666 0.333252H2.49992C1.58325 0.333252 0.833252 1.08325 0.833252 1.99992V8.66658C0.833252 9.58325 1.58325 10.3333 2.49992 10.3333H14.1666C15.0833 10.3333 15.8333 9.58325 15.8333 8.66658ZM14.1666 8.66658H2.49992V1.99992H14.1666V8.66658ZM8.33325 2.83325C6.94992 2.83325 5.83325 3.94992 5.83325 5.33325C5.83325 6.71659 6.94992 7.83325 8.33325 7.83325C9.71659 7.83325 10.8333 6.71659 10.8333 5.33325C10.8333 3.94992 9.71659 2.83325 8.33325 2.83325ZM19.1666 2.83325V11.9999C19.1666 12.9166 18.4166 13.6666 17.4999 13.6666H3.33325V11.9999H17.4999V2.83325H19.1666Z" fill="#ED1940"/>
</svg>
