<svg width="21" height="20" viewBox="0 0 21 20" fill="none" xmlns="http://www.w3.org/2000/svg">
<path d="M0.5 0.857143C0.5 0.629814 0.590306 0.411797 0.751051 0.251051C0.911797 0.0903058 1.12981 0 1.35714 0H1.99486C3.08057 0 3.732 0.730286 4.10343 1.40914C4.35143 1.86171 4.53086 2.38629 4.67143 2.86171C4.70945 2.85871 4.74757 2.85719 4.78571 2.85714H19.0691C20.0177 2.85714 20.7034 3.76457 20.4429 4.67771L18.3537 12.0023C18.1664 12.6593 17.7701 13.2373 17.2249 13.6489C16.6797 14.0605 16.0152 14.2833 15.332 14.2834H8.53428C7.84571 14.2835 7.17617 14.0573 6.6286 13.6399C6.08102 13.2224 5.68571 12.6366 5.50343 11.9726L4.63486 8.80457L3.19486 3.94971L3.19371 3.94057C3.01543 3.29257 2.84857 2.68571 2.59943 2.23314C2.36057 1.79314 2.16857 1.71429 1.996 1.71429H1.35714C1.12981 1.71429 0.911797 1.62398 0.751051 1.46323C0.590306 1.30249 0.5 1.08447 0.5 0.857143ZM6.29771 8.38857L7.156 11.5189C7.32743 12.1383 7.89086 12.5691 8.53428 12.5691H15.332C15.6425 12.5691 15.9446 12.468 16.1925 12.2809C16.4403 12.0939 16.6205 11.8312 16.7057 11.5326L18.6909 4.57143H5.16857L6.28171 8.328L6.29771 8.38857ZM10.2143 17.7143C10.2143 18.3205 9.97347 18.9019 9.54481 19.3305C9.11616 19.7592 8.53478 20 7.92857 20C7.32236 20 6.74098 19.7592 6.31233 19.3305C5.88367 18.9019 5.64286 18.3205 5.64286 17.7143C5.64286 17.1081 5.88367 16.5267 6.31233 16.098C6.74098 15.6694 7.32236 15.4286 7.92857 15.4286C8.53478 15.4286 9.11616 15.6694 9.54481 16.098C9.97347 16.5267 10.2143 17.1081 10.2143 17.7143ZM8.5 17.7143C8.5 17.5627 8.4398 17.4174 8.33263 17.3102C8.22547 17.2031 8.08012 17.1429 7.92857 17.1429C7.77702 17.1429 7.63167 17.2031 7.52451 17.3102C7.41735 17.4174 7.35714 17.5627 7.35714 17.7143C7.35714 17.8658 7.41735 18.0112 7.52451 18.1183C7.63167 18.2255 7.77702 18.2857 7.92857 18.2857C8.08012 18.2857 8.22547 18.2255 8.33263 18.1183C8.4398 18.0112 8.5 17.8658 8.5 17.7143ZM18.2143 17.7143C18.2143 18.3205 17.9735 18.9019 17.5448 19.3305C17.1162 19.7592 16.5348 20 15.9286 20C15.3224 20 14.741 19.7592 14.3123 19.3305C13.8837 18.9019 13.6429 18.3205 13.6429 17.7143C13.6429 17.1081 13.8837 16.5267 14.3123 16.098C14.741 15.6694 15.3224 15.4286 15.9286 15.4286C16.5348 15.4286 17.1162 15.6694 17.5448 16.098C17.9735 16.5267 18.2143 17.1081 18.2143 17.7143ZM16.5 17.7143C16.5 17.5627 16.4398 17.4174 16.3326 17.3102C16.2255 17.2031 16.0801 17.1429 15.9286 17.1429C15.777 17.1429 15.6317 17.2031 15.5245 17.3102C15.4173 17.4174 15.3571 17.5627 15.3571 17.7143C15.3571 17.8658 15.4173 18.0112 15.5245 18.1183C15.6317 18.2255 15.777 18.2857 15.9286 18.2857C16.0801 18.2857 16.2255 18.2255 16.3326 18.1183C16.4398 18.0112 16.5 17.8658 16.5 17.7143Z" fill="#3A3A3A"/>
</svg>
