<svg width="30" height="31" viewBox="0 0 30 31" fill="none" xmlns="http://www.w3.org/2000/svg">
<path fill-rule="evenodd" clip-rule="evenodd" d="M2.56305 22.9123C2.74406 23.2289 2.93372 23.6681 2.84718 23.9839L1.43228 29.102C1.40953 29.1793 1.39503 29.2588 1.38901 29.3392C1.38777 29.4308 1.40471 29.5218 1.43885 29.6068C1.47299 29.6918 1.52364 29.7693 1.58789 29.8346C1.65214 29.8999 1.7287 29.9518 1.81315 29.9874C1.8976 30.0229 1.98826 30.0413 2.07988 30.0416C2.19571 30.0295 2.30903 29.9998 2.41593 29.9536L7.30823 28.1883C7.58379 28.0716 7.88014 28.012 8.17938 28.013C8.4538 28.0133 8.72584 28.0639 8.98202 28.1623C9.23226 28.2589 10.2022 28.6195 11.1736 28.8914C12.145 29.1633 13.9255 29.495 15.246 29.495C23.5464 29.495 30 22.8229 30 14.7164C29.9994 13.707 29.8923 12.7004 29.6805 11.7135C28.2692 5.05653 22.226 0.041626 14.9871 0.041626C6.6866 0.041626 -0.0258865 6.61062 7.50175e-05 14.7056C-2.37815e-05 17.5257 0.827427 20.2839 2.37988 22.6383C2.44579 22.7263 2.50694 22.8177 2.56305 22.9123ZM10.4348 14.9601C10.4348 16.0407 9.55882 16.9166 8.47826 16.9166C7.3977 16.9166 6.52174 16.0407 6.52174 14.9601C6.52174 13.8795 7.3977 13.0036 8.47826 13.0036C9.55882 13.0036 10.4348 13.8795 10.4348 14.9601ZM15.2609 16.9166C16.3414 16.9166 17.2174 16.0407 17.2174 14.9601C17.2174 13.8795 16.3414 13.0036 15.2609 13.0036C14.1803 13.0036 13.3043 13.8795 13.3043 14.9601C13.3043 16.0407 14.1803 16.9166 15.2609 16.9166ZM24 14.9601C24 16.0407 23.124 16.9166 22.0435 16.9166C20.9629 16.9166 20.087 16.0407 20.087 14.9601C20.087 13.8795 20.9629 13.0036 22.0435 13.0036C23.124 13.0036 24 13.8795 24 14.9601Z" fill="#FDE8EC"/>
</svg>
