<svg width="35" height="35" viewBox="0 0 35 35" fill="none" xmlns="http://www.w3.org/2000/svg">
<g clip-path="url(#clip0_446_4810)">
<path d="M12.0755 22.3594C12.1177 22.2054 12.0252 21.9913 11.937 21.837C11.9096 21.7909 11.8798 21.7463 11.8477 21.7034C11.0909 20.5556 10.6875 19.211 10.6875 17.8362C10.6749 13.8899 13.9472 10.6875 17.9937 10.6875C21.5227 10.6875 24.4688 13.1323 25.1568 16.3775C25.26 16.8587 25.3123 17.3494 25.3125 17.8414C25.3125 21.7934 22.1664 25.046 18.1199 25.046C17.4762 25.046 16.6082 24.8843 16.1346 24.7518C15.6611 24.6192 15.1882 24.4434 15.0662 24.3963C14.9414 24.3484 14.8087 24.3237 14.675 24.3236C14.5291 24.323 14.3846 24.3521 14.2503 24.409L11.8653 25.2696C11.8132 25.2921 11.7579 25.3066 11.7014 25.3125C11.6568 25.3124 11.6126 25.3034 11.5714 25.286C11.5302 25.2687 11.4929 25.2434 11.4616 25.2116C11.4303 25.1797 11.4056 25.142 11.3889 25.1005C11.3723 25.0591 11.364 25.0147 11.3646 24.9701C11.3676 24.9309 11.3746 24.8921 11.3857 24.8544L12.0755 22.3594Z" stroke="#ED1940" stroke-width="1.5" stroke-miterlimit="10" stroke-linecap="round"/>
<path d="M14.625 19.125C15.2463 19.125 15.75 18.6213 15.75 18C15.75 17.3787 15.2463 16.875 14.625 16.875C14.0037 16.875 13.5 17.3787 13.5 18C13.5 18.6213 14.0037 19.125 14.625 19.125Z" fill="#ED1940"/>
<path d="M18 19.125C18.6213 19.125 19.125 18.6213 19.125 18C19.125 17.3787 18.6213 16.875 18 16.875C17.3787 16.875 16.875 17.3787 16.875 18C16.875 18.6213 17.3787 19.125 18 19.125Z" fill="#ED1940"/>
<path d="M21.375 19.125C21.9963 19.125 22.5 18.6213 22.5 18C22.5 17.3787 21.9963 16.875 21.375 16.875C20.7537 16.875 20.25 17.3787 20.25 18C20.25 18.6213 20.7537 19.125 21.375 19.125Z" fill="#ED1940"/>
</g>
<defs>
<clipPath id="clip0_446_4810">
<rect width="18" height="18" fill="white" transform="translate(9 9)"/>
</clipPath>
</defs>
</svg>
