<svg width="40" height="40" viewBox="0 0 40 40" fill="none" xmlns="http://www.w3.org/2000/svg">
<path d="M12.6858 26.382C12.7378 26.1918 12.6237 25.9275 12.5147 25.737C12.481 25.6801 12.4442 25.625 12.4045 25.5721C11.4702 24.1551 10.9722 22.4951 10.9722 20.7977C10.9566 15.9258 14.9965 11.9722 19.9922 11.9722C24.3489 11.9722 27.9861 14.9905 28.8355 18.997C28.963 19.591 29.0274 20.1967 29.0278 20.8043C29.0278 25.6832 25.1437 29.6988 20.148 29.6988C19.3533 29.6988 18.2817 29.4991 17.697 29.3355C17.1124 29.1719 16.5286 28.9549 16.378 28.8967C16.2238 28.8375 16.0601 28.807 15.895 28.8069C15.7149 28.8062 15.5365 28.8421 15.3707 28.9123L12.4262 29.9748C12.3619 30.0026 12.2937 30.0205 12.2239 30.0278C12.1688 30.0276 12.1142 30.0165 12.0634 29.9951C12.0126 29.9737 11.9665 29.9425 11.9278 29.9032C11.8892 29.8639 11.8587 29.8173 11.8381 29.7661C11.8176 29.7149 11.8074 29.6602 11.8082 29.605C11.8118 29.5567 11.8205 29.5088 11.8342 29.4622L12.6858 26.382Z" stroke="#ED1940" stroke-width="1.5" stroke-miterlimit="10" stroke-linecap="round"/>
<path d="M15.8332 22.3889C16.6003 22.3889 17.2221 21.7671 17.2221 21C17.2221 20.233 16.6003 19.6111 15.8332 19.6111C15.0662 19.6111 14.4443 20.233 14.4443 21C14.4443 21.7671 15.0662 22.3889 15.8332 22.3889Z" fill="#ED1940"/>
<path d="M19.9997 22.3889C20.7668 22.3889 21.3886 21.7671 21.3886 21C21.3886 20.233 20.7668 19.6111 19.9997 19.6111C19.2327 19.6111 18.6108 20.233 18.6108 21C18.6108 21.7671 19.2327 22.3889 19.9997 22.3889Z" fill="#ED1940"/>
<path d="M24.1662 22.3889C24.9333 22.3889 25.5551 21.7671 25.5551 21C25.5551 20.233 24.9333 19.6111 24.1662 19.6111C23.3992 19.6111 22.7773 20.233 22.7773 21C22.7773 21.7671 23.3992 22.3889 24.1662 22.3889Z" fill="#ED1940"/>
</svg>
