<svg width="40" height="40" viewBox="0 0 40 40" fill="none" xmlns="http://www.w3.org/2000/svg">
<path d="M26.0715 21.4286C26.0725 20.9637 25.957 20.5059 25.7358 20.097C25.5145 19.6882 25.1944 19.3412 24.8046 19.0877C24.4149 18.8342 23.9679 18.6823 23.5045 18.6458C23.041 18.6093 22.5757 18.6894 22.1511 18.8788C21.7265 19.0682 21.3561 19.3608 21.0736 19.73C20.791 20.0992 20.6054 20.5333 20.5336 20.9926C20.4617 21.4519 20.506 21.9219 20.6624 22.3598C20.8187 22.7976 21.0822 23.1893 21.4287 23.4993V27L23.2858 26.1211L25.143 27V23.4993C25.4348 23.239 25.6685 22.92 25.8285 22.5631C25.9885 22.2063 26.0713 21.8197 26.0715 21.4286ZM24.2144 25.5329L23.2858 25.0932L22.3572 25.5329V24.0518C22.9573 24.2685 23.6143 24.2685 24.2144 24.0518V25.5329ZM23.2858 23.2857C22.9185 23.2857 22.5595 23.1768 22.254 22.9727C21.9486 22.7687 21.7106 22.4786 21.57 22.1393C21.4295 21.7999 21.3927 21.4265 21.4644 21.0663C21.536 20.706 21.7129 20.3751 21.9726 20.1154C22.2323 19.8557 22.5633 19.6788 22.9235 19.6071C23.2838 19.5355 23.6572 19.5722 23.9965 19.7128C24.3359 19.8534 24.6259 20.0914 24.83 20.3968C25.034 20.7022 25.143 21.0613 25.143 21.4286C25.1423 21.9209 24.9465 22.3929 24.5983 22.7411C24.2502 23.0892 23.7782 23.2851 23.2858 23.2857ZM16.3215 19.5714H19.5715V20.5H16.3215V19.5714ZM16.3215 16.7857H20.9644V17.7143H16.3215V16.7857Z" fill="#ED1940"/>
<path d="M14.9286 27C14.6824 26.9998 14.4463 26.9018 14.2722 26.7278C14.0982 26.5537 14.0002 26.3176 14 26.0714V14.9286C14.0002 14.6824 14.0982 14.4463 14.2722 14.2722C14.4463 14.0982 14.6824 14.0002 14.9286 14H22.3571C22.6033 14.0002 22.8394 14.0982 23.0135 14.2722C23.1876 14.4463 23.2855 14.6824 23.2857 14.9286V16.7857H22.3571V14.9286H14.9286V26.0714H19.5714V27H14.9286Z" fill="#ED1940"/>
</svg>
