<svg width="40" height="40" viewBox="0 0 40 40" fill="none" xmlns="http://www.w3.org/2000/svg">
<path d="M19.5714 14.8571H15.7143C15.2596 14.8571 14.8236 15.0378 14.5021 15.3592C14.1806 15.6807 14 16.1168 14 16.5714V24.2857C14 24.7404 14.1806 25.1764 14.5021 25.4979C14.8236 25.8194 15.2596 26 15.7143 26H24.2857C24.7404 26 25.1764 25.8194 25.4979 25.4979C25.8194 25.1764 26 24.7404 26 24.2857V20.4286" stroke="#ED1940" stroke-linecap="round" stroke-linejoin="round"/>
<path d="M24.2856 15.7143L25.1025 16.5714M25.9999 13.9717C26.2284 14.208 26.3549 14.5246 26.3522 14.8533C26.3495 15.182 26.2177 15.4964 25.9853 15.7289L19.9999 21.7143L17.4285 22.5714L18.2856 20L24.2745 13.9606C24.485 13.7484 24.7667 13.6219 25.0652 13.6054C25.3636 13.5889 25.6576 13.6837 25.8902 13.8714L25.9999 13.9717Z" stroke="#ED1940" stroke-linecap="round" stroke-linejoin="round"/>
</svg>
