<svg width="40" height="40" viewBox="0 0 40 40" fill="none" xmlns="http://www.w3.org/2000/svg">
<path d="M23.4718 17.5278H25.208C25.6684 17.5278 26.11 17.7107 26.4356 18.0363C26.7612 18.3619 26.9441 18.8035 26.9441 19.2639V28.2917C26.9441 28.7522 26.7612 29.1938 26.4356 29.5193C26.11 29.8449 25.6684 30.0278 25.208 30.0278H14.7913C14.3308 30.0278 13.8893 29.8449 13.5637 29.5193C13.2381 29.1938 13.0552 28.7522 13.0552 28.2917V19.2639C13.0552 18.8035 13.2381 18.3619 13.5637 18.0363C13.8893 17.7107 14.3308 17.5278 14.7913 17.5278H16.5274" stroke="#ED1940" stroke-width="1.5" stroke-linecap="round" stroke-linejoin="round"/>
<path d="M19.9996 11.9722V24.4722M16.5273 21.6945L19.9996 25.1667L23.4718 21.6945H16.5273Z" stroke="#ED1940" stroke-width="1.5" stroke-linecap="round" stroke-linejoin="round"/>
</svg>
