<svg width="27" height="34" viewBox="0 0 27 34" fill="none" xmlns="http://www.w3.org/2000/svg">
<g filter="url(#filter0_d_1002_165)">
<path d="M14.125 9.16666V19.2408L18.5 14.8658L20.047 16.4128L13.0312 23.4285L6.01553 16.4128L7.5625 14.8658L11.9375 19.2408V9.16666H1.82031C1.60275 9.16666 1.3941 9.25308 1.24026 9.40692C1.08643 9.56076 1 9.76941 1 9.98697V30.2213C1 30.4389 1.08643 30.6476 1.24026 30.8014C1.3941 30.9552 1.60275 31.0417 1.82031 31.0417H24.2422C24.4597 31.0417 24.6684 30.9552 24.8222 30.8014C24.9761 30.6476 25.0625 30.4389 25.0625 30.2213V9.98697C25.0625 9.76941 24.9761 9.56076 24.8222 9.40692C24.6684 9.25308 24.4597 9.16666 24.2422 9.16666H14.125ZM11.9375 0.416656H14.125V9.16666H11.9375V0.416656Z" fill="#FDE8EC"/>
</g>
<defs>
<filter id="filter0_d_1002_165" x="0" y="0.416656" width="26.0625" height="32.625" filterUnits="userSpaceOnUse" color-interpolation-filters="sRGB">
<feFlood flood-opacity="0" result="BackgroundImageFix"/>
<feColorMatrix in="SourceAlpha" type="matrix" values="0 0 0 0 0 0 0 0 0 0 0 0 0 0 0 0 0 0 127 0" result="hardAlpha"/>
<feOffset dy="1"/>
<feGaussianBlur stdDeviation="0.5"/>
<feComposite in2="hardAlpha" operator="out"/>
<feColorMatrix type="matrix" values="0 0 0 0 0.239216 0 0 0 0 0.0745098 0 0 0 0 0.101961 0 0 0 0.15 0"/>
<feBlend mode="normal" in2="BackgroundImageFix" result="effect1_dropShadow_1002_165"/>
<feBlend mode="normal" in="SourceGraphic" in2="effect1_dropShadow_1002_165" result="shape"/>
</filter>
</defs>
</svg>
