<svg width="40" height="40" viewBox="0 0 40 40" fill="none" xmlns="http://www.w3.org/2000/svg">
<g clip-path="url(#clip0_446_6248)">
<path d="M20.4725 29.9688C17.7408 29.9688 15.4187 29.9999 12.4793 29.9378C10.9979 29.9067 10.6608 28.6145 11.3232 27.1419C11.9052 25.8497 12.6792 25.1473 14.1273 24.9552C15.0307 24.8349 15.9302 24.3926 16.7375 23.9327C17.978 23.2265 18.605 22.4135 17.5429 20.8788C16.5866 19.4973 15.6911 18.0499 15.5657 16.1659C15.3678 13.1935 16.7395 10.741 19.6044 10.1706C21.4229 9.80972 23.0102 9.86986 24.6484 11.847C25.3265 12.6657 25.9124 14.476 25.8477 15.7236C25.7438 17.722 24.9522 19.055 23.5902 20.7177C22.7574 21.7344 23.216 23.1683 24.0919 23.6223C25.3265 24.2626 26.7315 24.573 28.0307 25.1027C29.3319 25.6343 30.0001 26.618 29.9433 28.0654C29.9021 29.1403 29.616 30.0328 28.2815 29.9999C25.7125 29.9378 20.4725 29.9727 20.4725 29.9688Z" fill="#ED1940"/>
</g>
<defs>
<clipPath id="clip0_446_6248">
<rect width="18.9474" height="20" fill="white" transform="translate(11 10)"/>
</clipPath>
</defs>
</svg>
