<svg width="40" height="40" viewBox="0 0 40 40" fill="none" xmlns="http://www.w3.org/2000/svg">
<path d="M20.5 26C24.0899 26 27 23.0899 27 19.5C27 15.9101 24.0899 13 20.5 13C16.9101 13 14 15.9101 14 19.5C14 23.0899 16.9101 26 20.5 26Z" stroke="#ED1940" stroke-width="1.2" stroke-linecap="round" stroke-linejoin="round"/>
<path d="M18.6084 18.55C18.7612 18.1156 19.0628 17.7493 19.4599 17.5159C19.8569 17.2826 20.3237 17.1973 20.7776 17.2752C21.2314 17.353 21.6431 17.589 21.9397 17.9413C22.2363 18.2936 22.3986 18.7395 22.3979 19.2C22.3979 20.5 20.4479 21.15 20.4479 21.15M20.4999 23.75H20.5064" stroke="#ED1940" stroke-width="1.2" stroke-linecap="round" stroke-linejoin="round"/>
</svg>
