<svg width="20" height="20" viewBox="0 0 20 20" fill="none" xmlns="http://www.w3.org/2000/svg">
<path d="M2.09488 10.495L2.2999 10.7L2.09488 10.495C1.82151 10.7684 1.37829 10.7684 1.10493 10.495L0.753185 10.8467L1.10493 10.495C0.831561 10.2216 0.831561 9.77842 1.10493 9.50505L9.50493 1.10505C9.77829 0.831683 10.2215 0.831683 10.4949 1.10505L18.8949 9.50505C19.1682 9.77842 19.1682 10.2216 18.8949 10.495C18.6215 10.7684 18.1783 10.7684 17.9049 10.495L17.5535 10.1435L16.6999 9.28997V10.4971V18.4C16.6999 18.7866 16.3865 19.1 15.9999 19.1H13.5999C13.2133 19.1 12.8999 18.7866 12.8999 18.4V16C12.8999 15.0611 12.1388 14.3 11.1999 14.3H8.7999C7.86102 14.3 7.0999 15.0611 7.0999 16V18.4C7.0999 18.7866 6.7865 19.1 6.3999 19.1H3.9999C3.6133 19.1 3.2999 18.7866 3.2999 18.4V10.4971V9.28997L2.44635 10.1435L2.09488 10.495Z" stroke="black"/>
</svg>
