<svg width="17" height="17" viewBox="0 0 17 17" fill="none" xmlns="http://www.w3.org/2000/svg">
<path d="M8.71875 0.681816C4.41094 0.681816 0.90625 4.1865 0.90625 8.49432C0.90625 12.8021 4.41094 16.3068 8.71875 16.3068C13.0266 16.3068 16.5312 12.8021 16.5312 8.49432C16.5312 4.1865 13.0266 0.681816 8.71875 0.681816ZM8.71875 3.88494C8.91962 3.88494 9.11598 3.94451 9.283 4.0561C9.45002 4.1677 9.5802 4.32632 9.65707 4.5119C9.73394 4.69748 9.75405 4.90169 9.71486 5.0987C9.67567 5.29572 9.57894 5.47668 9.4369 5.61872C9.29487 5.76076 9.1139 5.85749 8.91689 5.89668C8.71988 5.93586 8.51567 5.91575 8.33009 5.83888C8.14451 5.76201 7.98589 5.63184 7.87429 5.46482C7.76269 5.2978 7.70312 5.10144 7.70312 4.90057C7.70312 4.63121 7.81013 4.37288 8.00059 4.18241C8.19106 3.99194 8.44939 3.88494 8.71875 3.88494ZM10.5938 12.7131H7.15625C6.99049 12.7131 6.83152 12.6472 6.71431 12.53C6.5971 12.4128 6.53125 12.2538 6.53125 12.0881C6.53125 11.9223 6.5971 11.7633 6.71431 11.6461C6.83152 11.5289 6.99049 11.4631 7.15625 11.4631H8.25V8.02557H7.625C7.45924 8.02557 7.30027 7.95972 7.18306 7.84251C7.06585 7.7253 7 7.56633 7 7.40057C7 7.23481 7.06585 7.07583 7.18306 6.95862C7.30027 6.84141 7.45924 6.77557 7.625 6.77557H8.875C9.04076 6.77557 9.19973 6.84141 9.31694 6.95862C9.43415 7.07583 9.5 7.23481 9.5 7.40057V11.4631H10.5938C10.7595 11.4631 10.9185 11.5289 11.0357 11.6461C11.1529 11.7633 11.2188 11.9223 11.2188 12.0881C11.2188 12.2538 11.1529 12.4128 11.0357 12.53C10.9185 12.6472 10.7595 12.7131 10.5938 12.7131Z" fill="black"/>
</svg>
