<svg width="40" height="40" viewBox="0 0 40 40" fill="none" xmlns="http://www.w3.org/2000/svg">
<path fill-rule="evenodd" clip-rule="evenodd" d="M23.5714 19.1429C24.0261 19.1429 24.4621 19.3235 24.7836 19.645C25.1051 19.9665 25.2857 20.4025 25.2857 20.8571V24.2857C25.2857 24.7404 25.1051 25.1764 24.7836 25.4979C24.4621 25.8194 24.0261 26 23.5714 26H16.7143C16.2596 26 15.8236 25.8194 15.5021 25.4979C15.1806 25.1764 15 24.7404 15 24.2857V20.8571C15 20.4025 15.1806 19.9665 15.5021 19.645C15.8236 19.3235 16.2596 19.1429 16.7143 19.1429V17.4286C16.7143 16.5193 17.0755 15.6472 17.7185 15.0042C18.3615 14.3612 19.2335 14 20.1429 14C21.0522 14 21.9242 14.3612 22.5672 15.0042C23.2102 15.6472 23.5714 16.5193 23.5714 17.4286V19.1429ZM20.1429 15.1429C20.7491 15.1429 21.3304 15.3837 21.7591 15.8123C22.1878 16.241 22.4286 16.8224 22.4286 17.4286V19.1429H17.8571V17.4286C17.8571 16.8224 18.098 16.241 18.5266 15.8123C18.9553 15.3837 19.5366 15.1429 20.1429 15.1429ZM23.5714 20.2857H16.7143C16.5627 20.2857 16.4174 20.3459 16.3102 20.4531C16.2031 20.5602 16.1429 20.7056 16.1429 20.8571V24.2857C16.1429 24.4373 16.2031 24.5826 16.3102 24.6898C16.4174 24.7969 16.5627 24.8571 16.7143 24.8571H23.5714C23.723 24.8571 23.8683 24.7969 23.9755 24.6898C24.0827 24.5826 24.1429 24.4373 24.1429 24.2857V20.8571C24.1429 20.7056 24.0827 20.5602 23.9755 20.4531C23.8683 20.3459 23.723 20.2857 23.5714 20.2857Z" fill="#ED1940"/>
</svg>
