<svg width="40" height="40" viewBox="0 0 40 40" fill="none" xmlns="http://www.w3.org/2000/svg">
<path d="M17.225 16.875V18.9H21.95V21.6H17.225V23.625L13.85 20.25L17.225 16.875ZM18.575 27C18.217 27 17.8736 26.8578 17.6204 26.6046C17.3672 26.3514 17.225 26.008 17.225 25.65V24.3H18.575V25.65H24.65V14.85L18.575 14.85V16.2H17.225V14.85C17.225 14.492 17.3672 14.1486 17.6204 13.8954C17.8736 13.6422 18.217 13.5 18.575 13.5L24.65 13.5C25.008 13.5 25.3514 13.6422 25.6046 13.8954C25.8578 14.1486 26 14.492 26 14.85V25.65C26 26.008 25.8578 26.3514 25.6046 26.6046C25.3514 26.8578 25.008 27 24.65 27H18.575Z" fill="#ED1940"/>
</svg>
