<svg width="40" height="40" viewBox="0 0 40 40" fill="none" xmlns="http://www.w3.org/2000/svg">
<g clip-path="url(#clip0_446_6265)">
<path d="M19.8456 29.9768C17.852 29.9768 15.8558 29.9056 13.8647 29.9972C11.7845 30.0939 9.95895 28.188 9.99969 26.1575C10.0812 22.0481 10.0124 17.9336 10.0302 13.8216C10.0404 11.646 11.4841 10.0786 13.6534 10.0455C17.8953 9.98445 22.1372 9.98191 26.3791 10.0481C28.5535 10.0811 29.9691 11.6944 29.9844 13.9972C30.0124 17.6002 29.9921 21.2033 29.9921 24.8089C29.9921 25.4018 30.0124 25.9997 29.9615 26.5875C29.7858 28.5468 28.3065 29.9437 26.3383 29.9717C24.1741 29.9997 22.0099 29.9768 19.8456 29.9768ZM18.9901 18.9997C17.8036 18.9997 16.6197 18.9997 15.4332 18.9997C14.0302 19.0023 13.8393 19.1956 13.9106 20.5748C13.9259 20.8674 13.9921 21.16 14.0455 21.4526C14.6184 24.6511 17.3173 26.8343 20.528 26.6995C23.7209 26.5672 26.3307 24.0481 26.542 20.7529C26.7075 18.1829 25.1416 15.1117 21.5694 14.2771C21.0067 14.1448 20.388 14.1346 19.8125 14.2084C19.2575 14.2796 18.952 14.7071 18.9443 15.2949C18.9367 15.8241 19.1862 16.1982 19.6852 16.3509C20.0035 16.4476 20.3472 16.4603 20.6782 16.5086C21.8215 16.6766 22.7559 17.2033 23.4306 18.1498C23.5707 18.3458 23.6292 18.6002 23.726 18.8267C23.5019 18.8852 23.2779 18.9895 23.0538 18.9921C21.6992 19.0074 20.3447 18.9997 18.9901 18.9997ZM17.0653 15.7402C17.0372 14.9336 16.3549 14.3254 15.5401 14.3814C14.7966 14.4323 14.2008 15.0964 14.2339 15.8292C14.267 16.5824 14.8934 17.1956 15.6318 17.2033C16.4211 17.2135 17.0933 16.529 17.0653 15.7402Z" fill="#ED1940"/>
<path d="M20.2687 21.374C21.3279 21.374 22.3896 21.3842 23.4488 21.3715C23.9708 21.3639 23.9886 21.5878 23.8282 22C23.3088 23.3282 21.8702 24.3053 20.3374 24.3435C18.7664 24.3842 17.2413 23.4275 16.6684 22.0687C16.4749 21.6081 16.5004 21.3588 17.0911 21.369C18.1477 21.3868 19.2095 21.374 20.2687 21.374Z" fill="#ED1940"/>
</g>
<defs>
<clipPath id="clip0_446_6265">
<rect width="20" height="20" fill="white" transform="translate(10 10)"/>
</clipPath>
</defs>
</svg>
