<svg width="40" height="40" viewBox="0 0 40 40" fill="none" xmlns="http://www.w3.org/2000/svg">
<g clip-path="url(#clip0_446_6242)">
<path d="M15.2545 11.298C16.028 11.297 16.8036 11.3191 17.5761 11.291C18.4006 11.261 19.0866 11.5245 19.6634 12.0788C22.3629 14.6725 25.0728 17.2551 27.7536 19.8669C28.6291 20.7208 28.627 21.6729 27.7608 22.5287C25.9483 24.3197 24.1244 26.1016 22.2546 27.8374C21.1053 28.9048 20.2308 28.8998 19.0898 27.8234C16.5225 25.4031 14 22.9396 11.4598 20.4933C10.8861 19.9411 10.5988 19.2836 10.604 18.4929C10.6144 16.6839 10.5873 14.8739 10.6113 13.0649C10.628 11.8563 11.1277 11.3722 12.4363 11.3071C13.3733 11.261 14.3154 11.298 15.2545 11.298ZM15.1556 12.5849C14.3821 12.5849 13.6075 12.5668 12.834 12.5899C11.8668 12.6179 11.7419 12.7111 11.7252 13.5791C11.6971 15.1214 11.6857 16.6668 11.7409 18.2082C11.7544 18.5921 11.9491 19.0581 12.226 19.3307C14.8172 21.8773 17.4511 24.3838 20.0569 26.9164C20.5202 27.3664 20.869 27.3073 21.301 26.8843C22.9594 25.2628 24.647 23.6683 26.3054 22.0467C27.2299 21.1427 27.2289 21.0665 26.2575 20.1204C24.4325 18.3415 22.593 16.5746 20.7492 14.8128C17.9456 12.1329 18.9336 12.636 15.1556 12.5849Z" fill="#ED1940"/>
<path d="M16.5537 9.36783C20.2599 9.41895 19.529 9.05815 22.1848 11.5987C24.3846 13.7024 26.574 15.816 28.7602 17.9327C29.0694 18.2323 29.3724 18.55 29.6045 18.9048C29.6868 19.0301 29.6129 19.3538 29.491 19.4711C29.3682 19.5893 29.0319 19.6635 28.9018 19.5843C28.5333 19.3608 28.2043 19.0672 27.893 18.7695C25.4996 16.4755 23.0853 14.2005 20.7409 11.8613C19.8653 10.9874 18.9283 10.5695 17.6624 10.6517C16.4496 10.7288 15.2263 10.6637 14.0083 10.6567C13.5533 10.6537 13.2712 10.4612 13.2889 9.98519C13.3066 9.50413 13.6147 9.36282 14.0624 9.36583C14.8921 9.37184 15.7229 9.36783 16.5537 9.36783Z" fill="#ED1940"/>
<path d="M15.3146 14.4941C14.5973 14.5091 13.7072 15.351 13.678 16.0405C13.6468 16.8092 14.5661 17.7001 15.3739 17.6851C16.0985 17.6721 16.9824 16.8392 17.0105 16.1427C17.0407 15.386 16.1068 14.477 15.3146 14.4941ZM15.3156 16.5025C15.0939 16.5025 14.9138 16.3291 14.9138 16.1156C14.9138 15.9022 15.0939 15.7288 15.3156 15.7288C15.5374 15.7288 15.7175 15.9022 15.7175 16.1156C15.7164 16.3291 15.5374 16.5025 15.3156 16.5025Z" fill="#ED1940"/>
</g>
<defs>
<clipPath id="clip0_446_6242">
<rect width="20" height="20" fill="white" transform="translate(10 10)"/>
</clipPath>
</defs>
</svg>
