<svg width="40" height="40" viewBox="0 0 40 40" fill="none" xmlns="http://www.w3.org/2000/svg">
<mask id="path-1-inside-1_446_6223" fill="white">
<path d="M20 13.8C14.9186 13.8 10.8 17.9186 10.8 23C10.8 28.0814 14.9186 32.2 20 32.2C25.0814 32.2 29.2 28.0814 29.2 23C29.1897 17.9229 25.0771 13.8103 20.0009 13.8H20V13.8ZM20 33C14.4769 33 10 28.5231 10 23C10 17.4769 14.4769 13 20 13C25.5231 13 30 17.4769 30 23V23.0129C30 28.5283 25.5291 32.9991 20.0138 32.9991H20H20.0009L20 33Z"/>
</mask>
<path d="M20 13.8C14.9186 13.8 10.8 17.9186 10.8 23C10.8 28.0814 14.9186 32.2 20 32.2C25.0814 32.2 29.2 28.0814 29.2 23C29.1897 17.9229 25.0771 13.8103 20.0009 13.8H20V13.8ZM20 33C14.4769 33 10 28.5231 10 23C10 17.4769 14.4769 13 20 13C25.5231 13 30 17.4769 30 23V23.0129C30 28.5283 25.5291 32.9991 20.0138 32.9991H20H20.0009L20 33Z" fill="#ED1940"/>
<path d="M29.2 23H30.2L30.2 22.998L29.2 23ZM20.0009 13.8L20.0029 12.8H20.0009V13.8ZM20 33V34H20.4145L20.7074 33.7068L20 33ZM20.0009 32.9991L20.7083 33.7059L22.4134 31.9991H20.0009V32.9991ZM20 12.8C14.3663 12.8 9.79997 17.3663 9.79997 23H11.8C11.8 18.4709 15.4709 14.8 20 14.8V12.8ZM9.79997 23C9.79997 28.6337 14.3663 33.2 20 33.2V31.2C15.4709 31.2 11.8 27.5291 11.8 23H9.79997ZM20 33.2C25.6337 33.2 30.2 28.6337 30.2 23H28.2C28.2 27.5291 24.5291 31.2 20 31.2V33.2ZM30.2 22.998C30.1886 17.3703 25.6299 12.8114 20.0029 12.8L19.9988 14.8C24.5243 14.8092 28.1908 18.4756 28.2 23.002L30.2 22.998ZM20.0009 12.8H20V14.8H20.0009V12.8ZM20 32C15.0292 32 11 27.9708 11 23H9C9 29.0754 13.9246 34 20 34V32ZM11 23C11 18.0292 15.0292 14 20 14V12C13.9246 12 9 16.9246 9 23H11ZM20 14C24.9708 14 29 18.0292 29 23H31C31 16.9246 26.0754 12 20 12V14ZM29 23V23.0129H31V23H29ZM29 23.0129C29 27.976 24.9769 31.9991 20.0138 31.9991V33.9991C26.0814 33.9991 31 29.0806 31 23.0129H29ZM20.0138 31.9991H20V33.9991H20.0138V31.9991ZM20 33.9991H20.0009V31.9991H20V33.9991ZM19.2934 32.2924L19.2926 32.2932L20.7074 33.7068L20.7083 33.7059L19.2934 32.2924Z" fill="#ED1940" mask="url(#path-1-inside-1_446_6223)"/>
<mask id="path-3-inside-2_446_6223" fill="white">
<path d="M20 33C14.4775 33 10 28.5225 10 23C10 17.4775 14.4775 13 20 13C25.5225 13 30 17.4775 30 23C29.9717 28.5117 25.5117 32.9717 20.0025 33H20ZM20 13.645C14.8333 13.645 10.645 17.8333 10.645 23C10.645 28.1667 14.8333 32.355 20 32.355C25.1667 32.355 29.355 28.1667 29.355 23C29.3517 17.835 25.165 13.6492 20.0008 13.645H20ZM20 32.29C14.905 32.29 10.7742 28.1592 10.7742 23.0642C10.7742 17.9692 14.905 13.8383 20 13.8383C25.095 13.8383 29.2258 17.9692 29.2258 23.0642C29.2258 28.1592 25.095 32.29 20 32.29ZM20 14.4192C15.2608 14.4192 11.4192 18.2608 11.4192 23C11.4192 27.7392 15.2608 31.5808 20 31.5808C24.7392 31.5808 28.5808 27.7392 28.5808 23V22.9958C28.5808 18.2592 24.7408 14.4192 20.0042 14.4192H20Z"/>
</mask>
<path d="M20 33C14.4775 33 10 28.5225 10 23C10 17.4775 14.4775 13 20 13C25.5225 13 30 17.4775 30 23C29.9717 28.5117 25.5117 32.9717 20.0025 33H20ZM20 13.645C14.8333 13.645 10.645 17.8333 10.645 23C10.645 28.1667 14.8333 32.355 20 32.355C25.1667 32.355 29.355 28.1667 29.355 23C29.3517 17.835 25.165 13.6492 20.0008 13.645H20ZM20 32.29C14.905 32.29 10.7742 28.1592 10.7742 23.0642C10.7742 17.9692 14.905 13.8383 20 13.8383C25.095 13.8383 29.2258 17.9692 29.2258 23.0642C29.2258 28.1592 25.095 32.29 20 32.29ZM20 14.4192C15.2608 14.4192 11.4192 18.2608 11.4192 23C11.4192 27.7392 15.2608 31.5808 20 31.5808C24.7392 31.5808 28.5808 27.7392 28.5808 23V22.9958C28.5808 18.2592 24.7408 14.4192 20.0042 14.4192H20Z" fill="#ED1940"/>
<path d="M30 23L31 23.0051V23H30ZM20.0025 33V34L20.0076 34L20.0025 33ZM29.355 23H30.355V22.9994L29.355 23ZM20.0008 13.645L20.0016 12.645H20.0008V13.645ZM20 32C15.0298 32 11 27.9702 11 23H9C9 29.0748 13.9252 34 20 34V32ZM11 23C11 18.0298 15.0298 14 20 14V12C13.9252 12 9 16.9252 9 23H11ZM20 14C24.9702 14 29 18.0298 29 23H31C31 16.9252 26.0748 12 20 12V14ZM29 22.9949C28.9745 27.9584 24.9581 31.9745 19.9974 32L20.0076 34C26.0652 33.9688 30.9688 29.0649 31 23.0051L29 22.9949ZM20.0025 32H20V34H20.0025V32ZM20 12.645C14.281 12.645 9.645 17.281 9.645 23H11.645C11.645 18.3856 15.3856 14.645 20 14.645V12.645ZM9.645 23C9.645 28.719 14.281 33.355 20 33.355V31.355C15.3856 31.355 11.645 27.6144 11.645 23H9.645ZM20 33.355C25.719 33.355 30.355 28.719 30.355 23H28.355C28.355 27.6144 24.6144 31.355 20 31.355V33.355ZM30.355 22.9994C30.3513 17.2825 25.7174 12.6496 20.0016 12.645L20 14.645C24.6126 14.6487 28.352 18.3875 28.355 23.0006L30.355 22.9994ZM20.0008 12.645H20V14.645H20.0008V12.645ZM20 31.29C15.4573 31.29 11.7742 27.6069 11.7742 23.0642H9.77417C9.77417 28.7115 14.3527 33.29 20 33.29V31.29ZM11.7742 23.0642C11.7742 18.5215 15.4573 14.8383 20 14.8383V12.8383C14.3527 12.8383 9.77417 17.4169 9.77417 23.0642H11.7742ZM20 14.8383C24.5427 14.8383 28.2258 18.5215 28.2258 23.0642H30.2258C30.2258 17.4169 25.6473 12.8383 20 12.8383V14.8383ZM28.2258 23.0642C28.2258 27.6069 24.5427 31.29 20 31.29V33.29C25.6473 33.29 30.2258 28.7115 30.2258 23.0642H28.2258ZM20 13.4192C14.7085 13.4192 10.4192 17.7085 10.4192 23H12.4192C12.4192 18.8131 15.8131 15.4192 20 15.4192V13.4192ZM10.4192 23C10.4192 28.2915 14.7085 32.5808 20 32.5808V30.5808C15.8131 30.5808 12.4192 27.1869 12.4192 23H10.4192ZM20 32.5808C25.2915 32.5808 29.5808 28.2915 29.5808 23H27.5808C27.5808 27.1869 24.1869 30.5808 20 30.5808V32.5808ZM29.5808 23V22.9958H27.5808V23H29.5808ZM29.5808 22.9958C29.5808 17.7069 25.2931 13.4192 20.0042 13.4192V15.4192C24.1885 15.4192 27.5808 18.8115 27.5808 22.9958H29.5808ZM20.0042 13.4192H20V15.4192H20.0042V13.4192Z" fill="#ED1940" mask="url(#path-3-inside-2_446_6223)"/>
<path d="M16.9987 19.922L16.9998 19.9184L17.001 19.922C17.1023 20.2268 17.3865 20.4332 17.7077 20.4354L17.7114 20.4354L17.7084 20.4377C17.4498 20.6282 17.3413 20.9622 17.4385 21.2684L17.4396 21.272L17.4366 21.2698C17.1755 21.0827 16.8242 21.0827 16.5631 21.2698L16.5601 21.272L16.5612 21.2684C16.6584 20.9622 16.5498 20.6282 16.2913 20.4377L16.2883 20.4354L16.292 20.4354C16.6132 20.4332 16.8973 20.2268 16.9987 19.922Z" fill="#ED1940" stroke="#ED1940"/>
<path d="M23.6656 19.922L23.6668 19.9184L23.668 19.922C23.7693 20.2268 24.0535 20.4332 24.3747 20.4354L24.3784 20.4354L24.3754 20.4377C24.1168 20.6282 24.0083 20.9622 24.1055 21.2684L24.1066 21.272L24.1036 21.2698C23.8424 21.0827 23.4912 21.0827 23.2301 21.2698L23.227 21.272L23.2282 21.2684C23.3254 20.9622 23.2168 20.6282 22.9583 20.4377L22.9552 20.4354L22.959 20.4354C23.2802 20.4332 23.5643 20.2268 23.6656 19.922Z" fill="#ED1940" stroke="#ED1940"/>
<path d="M15.9019 26.1678H24.7651C24.619 26.6803 24.237 27.1894 23.6004 27.6137C22.764 28.1711 21.6003 28.5 20.3629 28.5H20.3335H20.3319H20.3041C19.0667 28.5 17.903 28.1711 17.0666 27.6137C16.43 27.1894 16.048 26.6803 15.9019 26.1678Z" fill="#ED1940" stroke="#ED1940"/>
</svg>
