<svg width="12" height="14" viewBox="0 0 12 14" fill="none" xmlns="http://www.w3.org/2000/svg">
<path d="M6 14C6.94607 14 7.71348 13.2166 7.71348 12.25H4.28652C4.28652 13.2166 5.05393 14 6 14ZM11.7694 9.90637C11.2519 9.33871 10.2836 8.48477 10.2836 5.6875C10.2836 3.56289 8.82428 1.86211 6.8566 1.44484V0.875C6.8566 0.391836 6.47303 0 6 0C5.52697 0 5.1434 0.391836 5.1434 0.875V1.44484C3.17572 1.86211 1.71644 3.56289 1.71644 5.6875C1.71644 8.48477 0.748141 9.33871 0.230643 9.90637C0.069929 10.0827 -0.00132076 10.2936 1.85193e-05 10.5C0.00296494 10.9484 0.347696 11.375 0.859837 11.375H11.1402C11.6523 11.375 11.9973 10.9484 12 10.5C12.0013 10.2936 11.9301 10.0825 11.7694 9.90637Z" fill="black"/>
</svg>
