<svg width="40" height="40" viewBox="0 0 40 40" fill="none" xmlns="http://www.w3.org/2000/svg">
<path d="M20 13.6518C20.4768 13.6518 20.9429 13.7932 21.3393 14.0581C21.7358 14.323 22.0447 14.6995 22.2272 15.14C22.4097 15.5805 22.4574 16.0652 22.3644 16.5328C22.2714 17.0004 22.0418 17.43 21.7046 17.7671C21.3675 18.1043 20.9379 18.3339 20.4703 18.4269C20.0027 18.5199 19.518 18.4722 19.0775 18.2897C18.637 18.1072 18.2605 17.7983 17.9956 17.4018C17.7307 17.0054 17.5893 16.5393 17.5893 16.0625C17.5893 15.4231 17.8433 14.81 18.2954 14.3579C18.7475 13.9058 19.3606 13.6518 20 13.6518ZM20 12.6875C19.3325 12.6875 18.68 12.8854 18.125 13.2563C17.5699 13.6271 17.1374 14.1542 16.8819 14.7709C16.6265 15.3876 16.5596 16.0662 16.6899 16.7209C16.8201 17.3756 17.1415 17.977 17.6135 18.449C18.0855 18.921 18.6869 19.2424 19.3416 19.3726C19.9963 19.5029 20.6749 19.436 21.2916 19.1806C21.9083 18.9251 22.4354 18.4926 22.8062 17.9375C23.1771 17.3825 23.375 16.73 23.375 16.0625C23.375 15.1674 23.0194 14.3089 22.3865 13.676C21.7536 13.0431 20.8951 12.6875 20 12.6875Z" fill="#ED1940"/>
<path d="M25.0625 25.625C25.0625 23.1397 22.4853 21.125 20 21.125C17.5147 21.125 14.9375 23.1397 14.9375 25.625" stroke="#ED1940" stroke-linecap="round" stroke-linejoin="round"/>
</svg>
