<svg width="25" height="33" viewBox="0 0 25 33" fill="none" xmlns="http://www.w3.org/2000/svg">
<g clip-path="url(#clip0_255_526)">
<mask id="mask0_255_526" style="mask-type:alpha" maskUnits="userSpaceOnUse" x="4" y="8" width="16" height="17">
<path d="M12.452 14.8333C14.2929 14.8333 15.7853 13.3409 15.7853 11.5C15.7853 9.65905 14.2929 8.16666 12.452 8.16666C10.611 8.16666 9.11865 9.65905 9.11865 11.5C9.11865 13.3409 10.611 14.8333 12.452 14.8333Z" fill="white"/>
<path d="M18.7187 23.7333C18.7187 20.1988 15.8533 17.3333 12.3187 17.3333C8.78412 17.3333 5.9187 20.1988 5.9187 23.7333M10.5409 21.9556H14.0965M12.3187 20.1778V23.7333" stroke="white" stroke-width="2" stroke-linecap="round" stroke-linejoin="round"/>
</mask>
<g mask="url(#mask0_255_526)">
</g>
<path d="M20.3333 13.5V11.8333H18.6667V13.5H17V15.1667H18.6667V16.8333H20.3333V15.1667H22V13.5H20.3333ZM8.66667 16C10.5083 16 12 14.5083 12 12.6667C12 10.825 10.5083 9.33334 8.66667 9.33334C6.825 9.33334 5.33333 10.825 5.33333 12.6667C5.33333 14.5083 6.825 16 8.66667 16ZM8.66667 11C9.58333 11 10.3333 11.75 10.3333 12.6667C10.3333 13.5833 9.58333 14.3333 8.66667 14.3333C7.75 14.3333 7 13.5833 7 12.6667C7 11.75 7.75 11 8.66667 11ZM8.66667 16.8333C6.44167 16.8333 2 17.95 2 20.1667V22.6667H15.3333V20.1667C15.3333 17.95 10.8917 16.8333 8.66667 16.8333ZM13.6667 21H3.66667V20.175C3.83333 19.575 6.41667 18.5 8.66667 18.5C10.9167 18.5 13.5 19.575 13.6667 20.1667V21ZM12.425 9.375C13.1917 10.2583 13.6667 11.4083 13.6667 12.6667C13.6667 13.925 13.1917 15.075 12.425 15.9583C14.0583 15.75 15.3333 14.3667 15.3333 12.6667C15.3333 10.9667 14.0583 9.58334 12.425 9.375ZM15.775 17.525C16.5167 18.2167 17 19.0833 17 20.1667V22.6667H18.6667V20.1667C18.6667 18.9583 17.3417 18.075 15.775 17.525Z" fill="black"/>
</g>
<defs>
<clipPath id="clip0_255_526">
<rect width="20" height="20" fill="white" transform="translate(2.71875 6.5)"/>
</clipPath>
</defs>
</svg>
