<svg width="16" height="18" viewBox="0 0 16 18" fill="none" xmlns="http://www.w3.org/2000/svg">
<path d="M11.75 13.5C11.75 13.1022 11.592 12.7206 11.3107 12.4393C11.0294 12.158 10.6478 12 10.25 12H5.75C5.35218 12 4.97064 12.158 4.68934 12.4393C4.40804 12.7206 4.25 13.1022 4.25 13.5" stroke="#ED1940" stroke-width="1.5" stroke-linecap="round" stroke-linejoin="round"/>
<path d="M13.25 3H2.75C1.92157 3 1.25 3.67157 1.25 4.5V15C1.25 15.8284 1.92157 16.5 2.75 16.5H13.25C14.0784 16.5 14.75 15.8284 14.75 15V4.5C14.75 3.67157 14.0784 3 13.25 3Z" stroke="#ED1940" stroke-width="1.5" stroke-linecap="round" stroke-linejoin="round"/>
<path d="M8 9C8.82843 9 9.5 8.32843 9.5 7.5C9.5 6.67157 8.82843 6 8 6C7.17157 6 6.5 6.67157 6.5 7.5C6.5 8.32843 7.17157 9 8 9Z" stroke="#ED1940" stroke-width="1.5" stroke-linecap="round" stroke-linejoin="round"/>
<path d="M5 1.5V3M11 1.5V3" stroke="#ED1940" stroke-width="1.5" stroke-linecap="round" stroke-linejoin="round"/>
</svg>
