<svg width="18" height="18" viewBox="0 0 18 18" fill="none" xmlns="http://www.w3.org/2000/svg">
<path d="M15.1579 3H2V6.94737H2.65789V14.1842C2.65789 14.5332 2.79652 14.8679 3.04328 15.1146C3.29004 15.3614 3.62472 15.5 3.97368 15.5H13.1842C13.5332 15.5 13.8679 15.3614 14.1146 15.1146C14.3614 14.8679 14.5 14.5332 14.5 14.1842V6.94737H15.1579V3ZM3.31579 4.31579H13.8421V5.63158H3.31579V4.31579ZM13.1842 14.1842H3.97368V6.94737H13.1842V14.1842ZM6.60526 8.26316H10.5526C10.5526 8.61213 10.414 8.9468 10.1672 9.19356C9.92049 9.44032 9.58581 9.57895 9.23684 9.57895H7.92105C7.57208 9.57895 7.23741 9.44032 6.99065 9.19356C6.74389 8.9468 6.60526 8.61213 6.60526 8.26316Z" fill="#ED1940"/>
</svg>
