<svg width="17" height="17" viewBox="0 0 17 17" fill="none" xmlns="http://www.w3.org/2000/svg">
<path d="M3.22284 11.8932V14.8065L6.23325 14.0867L8.49992 16.2803L10.7666 14.0867L13.777 14.8065V11.8932L16.8228 11.1391L15.2999 8.22582L16.8228 5.31252L13.777 4.55848V1.64518L10.7666 2.36493L8.49992 0.171387L6.23325 2.36493L3.22284 1.64518V4.55848L0.177002 5.31252L1.69992 8.22582L0.177002 11.1391L3.22284 11.8932ZM3.04575 7.57461L2.37284 6.23792L3.577 5.96373C3.93117 5.89518 4.2086 5.72952 4.40929 5.46675C4.60999 5.20398 4.71033 4.90123 4.71033 4.55848V3.53026L5.84367 3.83873H6.23325C6.63464 3.83873 6.98881 3.6902 7.29575 3.39316L8.49992 2.22784L9.70408 3.39316C10.011 3.6902 10.3652 3.83873 10.7666 3.83873C10.9083 3.83873 11.0381 3.81588 11.1562 3.77018L12.2895 3.53026V4.55848C12.2895 4.90123 12.3898 5.20398 12.5905 5.46675C12.7912 5.72952 13.0687 5.89518 13.4228 5.96373L14.627 6.23792L13.9541 7.57461C13.718 8.00875 13.718 8.44289 13.9541 8.87703L14.627 10.2137L13.4228 10.4879C13.0687 10.5565 12.7912 10.7221 12.5905 10.9849C12.3898 11.2477 12.2895 11.5504 12.2895 11.8932V12.9214L11.1562 12.6129H10.7666C10.3652 12.6129 10.011 12.7614 9.70408 13.0585L8.49992 14.2238L7.29575 13.0585C6.98881 12.7614 6.63464 12.6129 6.23325 12.6129C6.09158 12.6129 5.96172 12.6358 5.84367 12.6815L4.71033 12.9214V11.8932C4.71033 11.5504 4.60999 11.2477 4.40929 10.9849C4.2086 10.7221 3.93117 10.5565 3.577 10.4879L2.37284 10.2137L3.04575 8.87703C3.28186 8.44289 3.28186 8.00875 3.04575 7.57461ZM7.75617 10.7278L11.2978 7.26614C11.6284 6.94625 11.6284 6.60351 11.2978 6.23792C10.9437 5.94088 10.5895 5.94088 10.2353 6.23792L7.75617 8.67139L6.7645 7.71171C6.41033 7.41467 6.05617 7.41467 5.702 7.71171C5.39506 8.05445 5.39506 8.39719 5.702 8.73993L7.75617 10.7278Z" fill="#ED1940"/>
</svg>
