<svg width="40" height="40" viewBox="0 0 40 40" fill="none" xmlns="http://www.w3.org/2000/svg">
<path d="M11.542 24.6144C11.6843 23.8178 12.0342 23.2818 12.7102 22.9198C12.9158 22.8104 13.0305 22.4166 13.075 22.1351C13.2964 20.725 13.8182 19.46 14.8125 18.4287C16.2872 16.8982 18.1591 16.4756 20.1873 16.5929C21.574 16.6725 22.8737 17.0464 23.9688 17.9693C25.3456 19.1288 25.9831 20.6713 26.2252 22.4076C26.2658 22.701 26.3439 22.8671 26.6097 23.0103C27.2097 23.3325 27.6861 23.769 27.6732 24.6144C22.2994 24.6144 16.9474 24.6144 11.542 24.6144ZM14.4577 21.5205C14.4196 21.6906 14.6346 21.8229 14.7008 21.8089C14.8807 21.8089 15.027 21.6528 15.0725 21.5235C15.3581 20.7031 15.705 19.9304 16.3544 19.3237C17.0186 18.7022 17.8053 18.3144 18.6474 18.0061C18.7779 17.9583 19.0319 17.7624 18.9429 17.5953C18.854 17.4283 18.6415 17.4352 18.5278 17.472C17.6017 17.7724 16.7052 18.1363 15.9739 18.8166C15.2019 19.5336 14.7068 20.4087 14.4577 21.5205ZM12.904 23.5304C12.8671 23.5731 12.837 23.6298 12.8812 23.7104C12.9534 23.8416 13.1372 23.8407 13.2657 23.8416C14.1829 23.8506 15.1001 23.8526 16.0173 23.8297C16.1359 23.8267 16.3633 23.8158 16.3633 23.6298C16.3633 23.4439 16.1053 23.4061 15.9719 23.4031C15.1041 23.3862 14.2343 23.3872 13.3665 23.4011C13.2064 23.4041 13.0216 23.3941 12.904 23.5304Z" fill="#ED1940"/>
<path d="M9.47934 27.7698C9.34393 26.4571 10.1386 25.5482 11.3602 25.5482C15.7061 25.5482 20.051 25.5502 24.3968 25.5462C25.5483 25.5452 26.7007 25.5114 27.8522 25.5193C28.9048 25.5273 29.6797 26.2304 29.8695 27.2726C29.9288 27.5988 29.9535 27.6575 29.9535 27.7698C29.8546 27.7758 29.3081 27.7698 29.2102 27.7698C22.7581 27.7698 16.305 27.7698 9.85295 27.7698C9.73928 27.7698 9.62661 27.7698 9.47934 27.7698Z" fill="#ED1940"/>
<path d="M17.9727 12.2302C19.0954 12.2302 20.1896 12.2302 21.3203 12.2302C21.3203 12.4917 21.3203 12.7722 21.3203 13.0546C20.9407 13.0804 20.5553 13.0496 20.1777 13.0745C19.9711 13.4365 20.3418 14.065 19.6232 14.053C18.8345 14.0399 19.3445 13.3897 19.0401 13.0546C18.7406 13.0546 18.369 13.0546 17.9727 13.0546C17.9727 12.7483 17.9727 12.4947 17.9727 12.2302Z" fill="#ED1940"/>
<path d="M19.6973 16.1425C19.5048 16.1212 19.2954 16.0994 19.0849 16.0757C18.4129 15.9989 18.1678 15.5027 18.5152 14.89C18.7897 14.4051 19.264 14.3343 19.7556 14.3644C20.2144 14.3926 20.6232 14.5221 20.809 15.0233C21.0341 15.6316 20.8893 15.9161 20.2511 16.0511C20.0773 16.0889 19.899 16.1108 19.6973 16.1425Z" fill="#ED1940"/>
</svg>
