<svg width="40" height="40" viewBox="0 0 40 40" fill="none" xmlns="http://www.w3.org/2000/svg">
<path d="M19.2858 20.2529L18.1758 19.1429L17.5715 19.7471L19.2858 21.4614L22.7144 18.0329L22.1101 17.4286L19.2858 20.2529Z" fill="#ED1940"/>
<path d="M20.1429 26L17.496 24.5887C16.7414 24.1873 16.1104 23.5879 15.6707 22.855C15.2309 22.1221 14.9991 21.2833 15 20.4286V14.8571C15.0002 14.6299 15.0906 14.412 15.2513 14.2513C15.412 14.0906 15.6299 14.0002 15.8571 14H24.4286C24.6558 14.0002 24.8737 14.0906 25.0344 14.2513C25.1951 14.412 25.2855 14.6299 25.2857 14.8571V20.4286C25.2866 21.2833 25.0548 22.1221 24.615 22.855C24.1753 23.5879 23.5443 24.1873 22.7897 24.5887L20.1429 26ZM15.8571 14.8571V20.4286C15.8564 21.1279 16.0462 21.8143 16.406 22.4139C16.7659 23.0136 17.2823 23.5039 17.8997 23.8323L20.1429 25.0284L22.386 23.8327C23.0035 23.5043 23.5199 23.0139 23.8798 22.4142C24.2396 21.8144 24.4294 21.128 24.4286 20.4286V14.8571H15.8571Z" fill="#ED1940"/>
</svg>
