<svg width="17" height="17" viewBox="0 0 17 17" fill="none" xmlns="http://www.w3.org/2000/svg">
<path d="M8.8594 5.31467C8.44109 5.31467 8.02688 5.39706 7.64042 5.55714C7.25395 5.71722 6.9028 5.95185 6.60701 6.24764C6.31122 6.54343 6.07659 6.89458 5.91651 7.28105C5.75643 7.66751 5.67404 8.08173 5.67404 8.50003C5.67404 8.91834 5.75643 9.33255 5.91651 9.71902C6.07659 10.1055 6.31122 10.4566 6.60701 10.7524C6.9028 11.0482 7.25395 11.2828 7.64042 11.4429C8.02688 11.603 8.44109 11.6854 8.8594 11.6854C9.70421 11.6854 10.5144 11.3498 11.1118 10.7524C11.7092 10.1551 12.0448 9.34484 12.0448 8.50003C12.0448 7.65522 11.7092 6.84501 11.1118 6.24764C10.5144 5.65027 9.70421 5.31467 8.8594 5.31467ZM6.73583 8.50003C6.73583 8.22116 6.79075 7.94502 6.89747 7.68738C7.00419 7.42973 7.16061 7.19563 7.35781 6.99844C7.555 6.80125 7.7891 6.64483 8.04674 6.53811C8.30439 6.43139 8.58053 6.37646 8.8594 6.37646C9.13827 6.37646 9.41441 6.43139 9.67206 6.53811C9.9297 6.64483 10.1638 6.80125 10.361 6.99844C10.5582 7.19563 10.7146 7.42973 10.8213 7.68738C10.928 7.94502 10.983 8.22116 10.983 8.50003C10.983 9.06324 10.7592 9.60338 10.361 10.0016C9.96275 10.3999 9.42261 10.6236 8.8594 10.6236C8.29619 10.6236 7.75605 10.3999 7.35781 10.0016C6.95956 9.60338 6.73583 9.06324 6.73583 8.50003ZM14.317 14.4425L13.0938 13.9052C12.9197 13.8296 12.7304 13.7957 12.5408 13.8063C12.3513 13.8168 12.1669 13.8716 12.0023 13.9661C11.6717 14.1572 11.4608 14.4949 11.419 14.875L11.2718 16.2058C11.2569 16.3395 11.2012 16.4654 11.1121 16.5662C11.0231 16.6671 10.905 16.738 10.7742 16.7692C9.51482 17.0694 8.20256 17.0694 6.94323 16.7692C6.81249 16.7379 6.69462 16.6669 6.60569 16.5661C6.51675 16.4652 6.4611 16.3394 6.44631 16.2058L6.29908 14.8771C6.27794 14.6901 6.21326 14.5107 6.11025 14.3532C6.00723 14.1958 5.86875 14.0646 5.70589 13.9704C5.54321 13.8763 5.36069 13.8217 5.17305 13.8112C4.98542 13.8006 4.79793 13.8343 4.6257 13.9095L3.40252 14.4467C3.27887 14.5011 3.14139 14.5156 3.00912 14.4883C2.87684 14.4611 2.75632 14.3934 2.66423 14.2946C1.78384 13.3511 1.12871 12.2204 0.748056 10.9874C0.70803 10.8579 0.709284 10.719 0.751642 10.5902C0.794 10.4613 0.875367 10.3488 0.98448 10.2683L2.06538 9.4698C2.21755 9.358 2.34127 9.21196 2.42655 9.0435C2.51182 8.87503 2.55626 8.68886 2.55626 8.50003C2.55626 8.31121 2.51182 8.12504 2.42655 7.95657C2.34127 7.7881 2.21755 7.64206 2.06538 7.53027L0.98448 6.73393C0.875227 6.65332 0.793768 6.5407 0.751404 6.41171C0.709039 6.28271 0.707869 6.14373 0.748056 6.01404C1.1295 4.78213 1.78511 3.65266 2.66564 2.71046C2.75782 2.61179 2.87838 2.54421 3.01065 2.51707C3.14292 2.48993 3.28036 2.50458 3.40394 2.55898L4.62145 3.09483C4.79469 3.16939 4.98298 3.20236 5.17124 3.19111C5.3595 3.17985 5.54252 3.12468 5.70564 3.03002C5.86876 2.93535 6.00745 2.80382 6.11063 2.64594C6.2138 2.48806 6.27858 2.30822 6.29979 2.12082L6.44844 0.79146C6.4634 0.656224 6.52022 0.529036 6.61095 0.427644C6.70168 0.326253 6.82181 0.255717 6.95455 0.225881C7.57818 0.0871411 8.21454 0.0135237 8.8686 0.0057373C9.50709 0.0128159 10.1427 0.0871411 10.7657 0.225881C10.8986 0.255661 11.0188 0.326272 11.1096 0.427821C11.2003 0.52937 11.2571 0.656769 11.2718 0.792168L11.4197 2.12152C11.4516 2.41633 11.5912 2.689 11.8117 2.88728C12.0322 3.08556 12.3181 3.19551 12.6146 3.19605C12.7795 3.19605 12.943 3.16137 13.0959 3.09412L14.3134 2.55827C14.437 2.50387 14.5745 2.48922 14.7067 2.51636C14.839 2.5435 14.9596 2.61108 15.0517 2.70975C15.9321 3.652 16.5874 4.78147 16.9686 6.01333C17.0087 6.14285 17.0076 6.28163 16.9653 6.41048C16.9231 6.53932 16.8419 6.65185 16.7329 6.73251L15.6534 7.53027C15.3455 7.75678 15.1593 8.11708 15.1593 8.50003C15.1593 8.88228 15.3455 9.24258 15.6541 9.4698L16.7343 10.2668C16.958 10.4325 17.0529 10.7213 16.9707 10.9867C16.5896 12.2185 15.9345 13.3479 15.0546 14.2903C14.9625 14.3891 14.842 14.4568 14.7097 14.4841C14.5774 14.5114 14.4399 14.4968 14.3163 14.4425H14.317ZM10.4613 14.3023C10.6302 13.7734 10.9897 13.326 11.47 13.0473C11.7789 12.8693 12.1254 12.7662 12.4814 12.7464C12.8374 12.7267 13.1931 12.7907 13.5199 12.9333L14.4713 13.351C15.0824 12.6434 15.5554 11.8276 15.8658 10.9457L15.0241 10.3249V10.3242C14.7376 10.1138 14.5045 9.83906 14.3435 9.5221C14.1826 9.20514 14.0983 8.85481 14.0975 8.49932C14.0975 7.77235 14.4494 7.09777 15.0227 6.67588L15.0241 6.67518L15.8644 6.05438C15.5538 5.17266 15.0805 4.35703 14.4692 3.64979L13.5256 4.0646L13.5242 4.0653C13.2368 4.19272 12.9275 4.25784 12.6139 4.25784C12.0562 4.257 11.5185 4.05062 11.1034 3.67817C10.6884 3.30571 10.4253 2.79333 10.3643 2.23903V2.23761L10.2489 1.20414C9.79355 1.11933 9.33176 1.07363 8.8686 1.06752C8.39957 1.07342 7.93188 1.11913 7.47058 1.20414L7.3552 2.23832C7.31552 2.59123 7.1936 2.92991 6.99923 3.22714C6.80486 3.52436 6.54346 3.77184 6.23606 3.94967C5.92866 4.1275 5.58382 4.23073 5.22926 4.25106C4.87471 4.27139 4.52033 4.20825 4.19462 4.06672L3.24892 3.6505C2.63756 4.35772 2.16431 5.17336 1.85373 6.05509L2.69608 6.67588C2.98202 6.88646 3.21447 7.16129 3.37467 7.47821C3.53486 7.79514 3.61833 8.14528 3.61833 8.50039C3.61833 8.8555 3.53486 9.20564 3.37467 9.52256C3.21447 9.83948 2.98202 10.1143 2.69608 10.3249L1.85373 10.9464C2.16372 11.8295 2.63674 12.6466 3.24821 13.3552L4.20028 12.9376C4.52496 12.7955 4.87851 12.7317 5.23239 12.7513C5.58627 12.771 5.93057 12.8736 6.23749 13.0509C6.54429 13.2281 6.80524 13.4748 6.99936 13.7712C7.19348 14.0676 7.31536 14.4054 7.3552 14.7575V14.761L7.46987 15.7973C8.38797 15.9778 9.33154 15.9778 10.2496 15.7973L10.3643 14.7589C10.3813 14.6032 10.4139 14.4496 10.462 14.3023H10.4613Z" fill="black"/>
</svg>
