<svg width="40" height="40" viewBox="0 0 40 40" fill="none" xmlns="http://www.w3.org/2000/svg">
<path d="M14.3158 25.1842H24.8421V21.8947H26.1579V25.8421C26.1579 26.0166 26.0886 26.1839 25.9652 26.3073C25.8418 26.4307 25.6745 26.5 25.5 26.5H13.6579C13.4834 26.5 13.3161 26.4307 13.1927 26.3073C13.0693 26.1839 13 26.0166 13 25.8421V21.8947H14.3158V25.1842ZM19.5789 19.2632H17.6053C16.9823 19.2627 16.3681 19.4099 15.813 19.6928C15.2579 19.9756 14.7777 20.3859 14.4118 20.8901C14.6454 19.6911 15.2886 18.6106 16.2312 17.8337C17.1739 17.0568 18.3574 16.6318 19.5789 16.6316V14L24.8421 17.9474L19.5789 21.8947V19.2632Z" fill="#ED1940"/>
</svg>
