<svg width="34" height="35" viewBox="0 0 34 35" fill="none" xmlns="http://www.w3.org/2000/svg">
<g filter="url(#filter0_d_350_207)">
<path d="M32 6.75C32 9.51142 29.7614 11.75 27 11.75C25.0425 11.75 23.3478 10.6251 22.5269 8.98656C22.1897 8.31358 22 7.55395 22 6.75C22 3.98858 24.2386 1.75 27 1.75C29.7614 1.75 32 3.98858 32 6.75Z" fill="#FDE8EC"/>
<path d="M32 26.75C32 29.5114 29.7614 31.75 27 31.75C24.2386 31.75 22 29.5114 22 26.75C22 25.9461 22.1897 25.1864 22.5269 24.5134C23.3478 22.8749 25.0425 21.75 27 21.75C29.7614 21.75 32 23.9886 32 26.75Z" fill="#FDE8EC"/>
<path d="M12 16.75C12 17.5539 11.8103 18.3136 11.4731 18.9866C10.6522 20.6251 8.95748 21.75 7 21.75C4.23858 21.75 2 19.5114 2 16.75C2 13.9886 4.23858 11.75 7 11.75C8.95748 11.75 10.6522 12.8749 11.4731 14.5134C11.8103 15.1864 12 15.9461 12 16.75Z" fill="#FDE8EC"/>
<path d="M31 6.75C31 8.95914 29.2091 10.75 27 10.75V12.75C30.3137 12.75 33 10.0637 33 6.75H31ZM23 6.75C23 4.54086 24.7909 2.75 27 2.75V0.75C23.6863 0.75 21 3.43629 21 6.75H23ZM27 2.75C29.2091 2.75 31 4.54086 31 6.75H33C33 3.43629 30.3137 0.75 27 0.75V2.75ZM31 26.75C31 28.9591 29.2091 30.75 27 30.75V32.75C30.3137 32.75 33 30.0637 33 26.75H31ZM27 30.75C24.7909 30.75 23 28.9591 23 26.75H21C21 30.0637 23.6863 32.75 27 32.75V30.75ZM27 22.75C29.2091 22.75 31 24.5409 31 26.75H33C33 23.4363 30.3137 20.75 27 20.75V22.75ZM7 20.75C4.79086 20.75 3 18.9591 3 16.75H1C1 20.0637 3.68629 22.75 7 22.75V20.75ZM3 16.75C3 14.5409 4.79086 12.75 7 12.75V10.75C3.68629 10.75 1 13.4363 1 16.75H3ZM11 16.75C11 17.395 10.8481 18.0016 10.579 18.5386L12.3672 19.4345C12.7724 18.6256 13 17.7129 13 16.75H11ZM10.579 18.5386C9.9211 19.852 8.56452 20.75 7 20.75V22.75C9.35043 22.75 11.3833 21.3983 12.3672 19.4345L10.579 18.5386ZM7 12.75C8.56452 12.75 9.9211 13.648 10.579 14.9614L12.3672 14.0655C11.3833 12.1017 9.35043 10.75 7 10.75V12.75ZM10.579 14.9614C10.8481 15.4984 11 16.105 11 16.75H13C13 15.7871 12.7724 14.8744 12.3672 14.0655L10.579 14.9614ZM11.9203 15.4079L22.9741 9.88098L22.0797 8.09213L11.0259 13.619L11.9203 15.4079ZM27 10.75C25.4355 10.75 24.0789 9.85195 23.421 8.53865L21.6328 9.43447C22.6167 11.3983 24.6496 12.75 27 12.75V10.75ZM23.421 8.53865C23.1519 8.00156 23 7.39496 23 6.75H21C21 7.71294 21.2276 8.6256 21.6328 9.43447L23.421 8.53865ZM11.0259 19.881L22.0797 25.4079L22.9741 23.619L11.9203 18.0921L11.0259 19.881ZM23 26.75C23 26.105 23.1519 25.4984 23.421 24.9614L21.6328 24.0655C21.2276 24.8744 21 25.7871 21 26.75H23ZM23.421 24.9614C24.0789 23.648 25.4355 22.75 27 22.75V20.75C24.6496 20.75 22.6167 22.1017 21.6328 24.0655L23.421 24.9614Z" fill="#FDE8EC"/>
</g>
<defs>
<filter id="filter0_d_350_207" x="0" y="0.75" width="34" height="34" filterUnits="userSpaceOnUse" color-interpolation-filters="sRGB">
<feFlood flood-opacity="0" result="BackgroundImageFix"/>
<feColorMatrix in="SourceAlpha" type="matrix" values="0 0 0 0 0 0 0 0 0 0 0 0 0 0 0 0 0 0 127 0" result="hardAlpha"/>
<feOffset dy="1"/>
<feGaussianBlur stdDeviation="0.5"/>
<feComposite in2="hardAlpha" operator="out"/>
<feColorMatrix type="matrix" values="0 0 0 0 0.239216 0 0 0 0 0.0745098 0 0 0 0 0.101961 0 0 0 0.15 0"/>
<feBlend mode="normal" in2="BackgroundImageFix" result="effect1_dropShadow_350_207"/>
<feBlend mode="normal" in="SourceGraphic" in2="effect1_dropShadow_350_207" result="shape"/>
</filter>
</defs>
</svg>
