<svg width="40" height="40" viewBox="0 0 40 40" fill="none" xmlns="http://www.w3.org/2000/svg">
<path d="M20.1871 22.924C22.1287 22.924 23.6842 21.3568 23.6842 19.4152L23.6959 12.3977C23.6959 10.4562 22.1287 8.88892 20.1871 8.88892C18.2456 8.88892 16.6784 10.4562 16.6784 12.3977V19.4152C16.6784 21.3568 18.2456 22.924 20.1871 22.924ZM26.386 19.4152C26.386 22.924 23.4152 25.3801 20.1871 25.3801C16.9591 25.3801 13.9883 22.924 13.9883 19.4152H12C12 23.4152 15.1813 26.7018 19.0175 27.2749V31.1111H21.3567V27.2749C25.193 26.7135 28.3743 23.4152 28.3743 19.4152H26.386Z" fill="#ED1940"/>
</svg>
