<svg width="10" height="15" viewBox="0 0 10 15" fill="none" xmlns="http://www.w3.org/2000/svg">
<path d="M6.24023 0H5.625V13.4473C5.625 13.8965 5.77637 14.2676 6.0791 14.5605C6.38184 14.8535 6.74805 15 7.17773 15C7.60742 15 7.97363 14.8535 8.27637 14.5605C8.5791 14.2676 8.73047 13.8965 8.73047 13.4473V8.26172C9.16016 7.89062 9.375 7.43164 9.375 6.88477V3.13477C9.375 2.25586 9.07227 1.51367 8.4668 0.908203C7.86133 0.302734 7.11914 0 6.24023 0ZM7.5 13.4473C7.5 13.6426 7.39258 13.7402 7.17773 13.7402C6.96289 13.7402 6.85547 13.6426 6.85547 13.4473V8.75977H7.5V13.4473ZM8.11523 6.88477C8.11523 7.06055 8.05664 7.20703 7.93945 7.32422C7.82227 7.44141 7.67578 7.5 7.5 7.5H6.85547V1.37695C7.22656 1.49414 7.5293 1.71387 7.76367 2.03613C7.99805 2.3584 8.11523 2.72461 8.11523 3.13477V6.88477ZM0 8.4375V13.4473C0 13.8965 0.151367 14.2676 0.454102 14.5605C0.756836 14.8535 1.12305 15 1.55273 15C1.98242 15 2.34863 14.8535 2.65137 14.5605C2.9541 14.2676 3.10547 13.8965 3.10547 13.4473V8.4375C3.10547 8.00781 2.9541 7.6416 2.65137 7.33887C2.34863 7.03613 1.98242 6.88477 1.55273 6.88477C1.12305 6.88477 0.756836 7.03613 0.454102 7.33887C0.151367 7.6416 0 8.00781 0 8.4375ZM1.23047 8.4375C1.23047 8.22266 1.33789 8.11523 1.55273 8.11523C1.76758 8.11523 1.875 8.22266 1.875 8.4375V13.4473C1.875 13.6426 1.76758 13.7402 1.55273 13.7402C1.33789 13.7402 1.23047 13.6426 1.23047 13.4473V8.4375ZM2.49023 4.36523H1.875V0H1.23047V4.36523H0.615234V0H0V5.00977H1.23047V6.88477H1.875V5.00977H3.10547V0H2.49023V4.36523Z" fill="black"/>
</svg>
