<svg width="40" height="40" viewBox="0 0 40 40" fill="none" xmlns="http://www.w3.org/2000/svg">
<g clip-path="url(#clip0_446_3620)">
<path d="M24.2612 17.0847C24.2612 14.8282 22.433 13 20.1765 13C17.92 13 16.0918 14.8282 16.0918 17.0847C16.0918 18.4485 16.7605 19.6574 17.7883 20.3986C17.7817 20.4019 17.7767 20.4035 17.7734 20.4052C17.0372 20.7165 16.3767 21.1628 15.8085 21.7327C15.2403 22.3009 14.7956 22.9631 14.4843 23.7009C14.1796 24.4224 14.0165 25.1882 14 25.9755C13.9984 26.0496 14.0577 26.1106 14.1318 26.1106H15.1184C15.1892 26.1106 15.2485 26.0529 15.2502 25.9821C15.2831 24.7106 15.792 23.5198 16.693 22.6172C17.6236 21.6833 18.8589 21.1694 20.1765 21.1694C22.433 21.1694 24.2612 19.3412 24.2612 17.0847ZM20.1765 19.9176C18.6118 19.9176 17.3436 18.6494 17.3436 17.0847C17.3436 15.52 18.6118 14.2518 20.1765 14.2518C21.7412 14.2518 23.0094 15.52 23.0094 17.0847C23.0094 18.6494 21.7412 19.9176 20.1765 19.9176ZM21.9059 23.5576H26.2542C26.3266 23.5576 26.3859 23.4984 26.3859 23.4259V22.5035C26.3859 22.4311 26.3266 22.3718 26.2542 22.3718H23.3471L24.1245 21.3819C24.1426 21.3588 24.1525 21.3292 24.1525 21.3012C24.1525 21.2287 24.0932 21.1694 24.0207 21.1694H22.825C22.7443 21.1694 22.6685 21.2073 22.6174 21.2699L21.4892 22.7045C21.4167 22.7967 21.3772 22.912 21.3772 23.0306C21.3789 23.3221 21.6144 23.5576 21.9059 23.5576ZM25.8589 24.6118H21.5106C21.4382 24.6118 21.3789 24.6711 21.3789 24.7435V25.6659C21.3789 25.7384 21.4382 25.7976 21.5106 25.7976H24.4177L23.6403 26.7875C23.6222 26.8106 23.6123 26.8402 23.6123 26.8682C23.6123 26.9407 23.6716 27 23.744 27H24.9398C25.0205 27 25.0963 26.9621 25.1473 26.8995L26.2756 25.4649C26.348 25.3727 26.3876 25.2574 26.3876 25.1388C26.3859 24.8473 26.1504 24.6118 25.8589 24.6118Z" fill="#ED1940"/>
</g>
<defs>
<clipPath id="clip0_446_3620">
<rect width="18" height="18" fill="white" transform="translate(11 11)"/>
</clipPath>
</defs>
</svg>
