<svg width="16" height="16" viewBox="0 0 16 16" fill="none" xmlns="http://www.w3.org/2000/svg">
<path d="M8.79999 1.4392C5.24399 1.4392 2.35119 4.2888 2.26479 7.836V8H0.367188L3.24239 11.1152L6.03759 8H3.89999V7.836C3.98559 5.1936 6.14639 3.08 8.79999 3.08C11.5088 3.08 13.7048 5.2832 13.7048 8C13.7048 10.7168 11.5088 12.92 8.79999 12.92C7.75557 12.9206 6.73851 12.5861 5.89839 11.9656L4.77359 13.1688C5.9216 14.0711 7.33983 14.5608 8.79999 14.5592C12.412 14.5592 15.3392 11.6232 15.3392 8C15.3392 4.3768 12.412 1.4392 8.79999 1.4392ZM7.99999 4V8C8.0009 8.21198 8.08509 8.41512 8.23439 8.5656L10.7944 11.1256C11.0208 10.9792 11.2344 10.8144 11.424 10.6232L9.59999 8.8V4H7.99999Z" fill="#ED1940"/>
</svg>
