<svg width="40" height="40" viewBox="0 0 40 40" fill="none" xmlns="http://www.w3.org/2000/svg">
<g clip-path="url(#clip0_446_6228)">
<path d="M19.9661 10C25.5683 10 30.0009 14.425 30 20.0152C29.9982 25.5036 25.4854 30.0089 20 30C14.4183 29.9911 9.99377 25.5179 10 19.8902C10.0062 14.442 14.4825 10 19.9661 10ZM19.975 28.5411C24.7125 28.5411 28.5504 24.7098 28.5424 19.9884C28.5344 15.2723 24.725 11.4455 20.0214 11.4286C15.3259 11.4116 11.4585 15.2554 11.4558 19.9429C11.4549 24.7 15.2608 28.5411 19.975 28.5411Z" fill="#ED1940"/>
<path d="M17.3835 26.5054C15.2377 26.3688 13.7069 24.6331 14.5592 22.3384C14.7126 21.9259 14.742 21.5947 14.4879 21.2134C14.2187 20.8107 14.3051 20.4054 14.6323 20.192C14.9568 19.9795 15.3687 20.0527 15.6433 20.434C16.3948 21.475 17.314 22.2875 18.5728 22.6375C20.4253 23.1527 22.0639 22.75 23.4546 21.4143C23.7854 21.0964 24.076 20.7375 24.3738 20.3866C24.701 20.0009 25.0923 19.9036 25.4213 20.1456C25.736 20.3759 25.7824 20.7661 25.531 21.1813C24.479 22.9143 22.9527 23.942 20.9415 24.1982C20.4004 24.267 20.0607 24.4661 19.8236 24.9795C19.3921 25.9125 18.3766 26.5081 17.3835 26.5054ZM18.4542 24.2357C17.6153 23.8366 16.7773 23.4384 15.9188 23.0304C15.67 23.4982 15.6825 23.9232 15.966 24.3152C16.3538 24.8509 16.8994 25.0973 17.5529 25.0036C17.9746 24.9429 18.3499 24.759 18.4542 24.2357Z" fill="#ED1940"/>
<path d="M21.4024 18.1866C21.3783 16.8946 22.1646 15.8777 23.2211 15.7303C24.3354 15.5741 25.3598 16.2214 25.6165 17.3187C25.7182 17.7553 25.6905 18.2321 25.6575 18.6857C25.6326 19.0366 25.3767 19.2393 25.0166 19.2446C24.6493 19.25 24.3782 19.0884 24.3132 18.7018C24.2713 18.4544 24.273 18.1991 24.2525 17.9482C24.2106 17.4491 23.9655 17.1669 23.5714 17.1607C23.1988 17.1544 22.9456 17.4143 22.8814 17.8893C22.8475 18.1393 22.8475 18.3937 22.8136 18.6437C22.7637 19.0196 22.5426 19.2402 22.1602 19.2419C21.7777 19.2437 21.4978 19.0902 21.4577 18.6598C21.4398 18.4669 21.4131 18.2759 21.4024 18.1866Z" fill="#ED1940"/>
<path d="M18.57 18.2214C18.5575 18.3839 18.562 18.5509 18.5281 18.7098C18.4586 19.0384 18.2526 19.2304 17.9076 19.242C17.5608 19.2536 17.28 19.1286 17.2016 18.767C17.1418 18.4946 17.1454 18.208 17.1204 17.9277C17.0767 17.4393 16.8191 17.158 16.4206 17.1625C16.0488 17.1679 15.7957 17.4429 15.7457 17.9089C15.7172 18.1741 15.7226 18.4455 15.6744 18.7071C15.6174 19.0116 15.4257 19.2089 15.1003 19.2393C14.774 19.2705 14.511 19.167 14.3692 18.8545C14.0608 18.1777 14.421 16.7723 15.0379 16.2223C15.6967 15.6348 16.7567 15.5393 17.5296 16.0125C18.3552 16.5179 18.6253 17.2937 18.57 18.2214Z" fill="#ED1940"/>
</g>
<defs>
<clipPath id="clip0_446_6228">
<rect width="20" height="20" fill="white" transform="translate(10 10)"/>
</clipPath>
</defs>
</svg>
